<svg width="512" height="512" viewBox="0 0 1024 1024" xmlns="http://www.w3.org/2000/svg" role="img" aria-label="Phlox"><defs><radialGradient id="pxiBg" cx="50%" cy="40%" r="82%"><stop offset="0%" stop-color="#16101A"/><stop offset="60%" stop-color="#08050B"/><stop offset="100%" stop-color="#030204"/></radialGradient><linearGradient id="pxiGl" x1="0.1" y1="0" x2="0.9" y2="1"><stop offset="0%" stop-color="#B36BFF"/><stop offset="100%" stop-color="#F65FA6"/></linearGradient></defs><rect x="80" y="80" width="864" height="864" rx="200" fill="url(#pxiBg)"/><rect x="81.25" y="81.25" width="861.5" height="861.5" rx="199" fill="none" stroke="#FFB1F7" stroke-opacity="0.30" stroke-width="2.5"/><g transform="translate(512,508) scale(28) translate(-12,-12)" stroke="url(#pxiGl)" fill="none" stroke-linecap="round"><path d="M12 6.3V9.8M12 14.2v3.5M6.6 9.1l3.5 1.9M13.9 13l3.5 1.9M6.6 14.9l3.5-1.9M13.9 11l3.5-1.9" stroke-width="0.38"/><g stroke-width="0.56"><circle cx="12" cy="4.5" r="1.8"/><circle cx="12" cy="19.5" r="1.8"/><circle cx="5" cy="8.2" r="1.8"/><circle cx="19" cy="8.2" r="1.8"/><circle cx="5" cy="15.8" r="1.8"/><circle cx="19" cy="15.8" r="1.8"/></g><circle cx="12" cy="12" r="2.7" fill="url(#pxiGl)" stroke="none"/></g></svg>